<svg xmlns="http://www.w3.org/2000/svg" width="147.152" height="158.767" viewBox="0 0 147.152 158.767">
  <g id="accident" transform="translate(-27.3 -38.063)">
    <g id="Groupe_16" data-name="Groupe 16" transform="translate(51.255 142.076)">
      <path id="Tracé_61" data-name="Tracé 61" d="M237.644,414.844H203.422a3.422,3.422,0,0,1,0-6.844h34.221a3.422,3.422,0,0,1,0,6.844Z" transform="translate(-162.356 -360.09)" fill="#f8b127"/>
      <path id="Tracé_62" data-name="Tracé 62" d="M162.266,414.844h-6.844a3.422,3.422,0,0,1,0-6.844h6.844a3.422,3.422,0,0,1,0,6.844Z" transform="translate(-134.889 -360.09)" fill="#f8b127"/>
      <path id="Tracé_63" data-name="Tracé 63" d="M204.488,302.844H163.422a3.422,3.422,0,1,1,0-6.844h41.066a3.422,3.422,0,1,1,0,6.844Z" transform="translate(-139.467 -296)" fill="#f8b127"/>
      <path id="Tracé_64" data-name="Tracé 64" d="M122.266,302.844h-6.844a3.422,3.422,0,1,1,0-6.844h6.844a3.422,3.422,0,0,1,0,6.844Z" transform="translate(-112 -296)" fill="#f8b127"/>
    </g>
    <g id="Groupe_17" data-name="Groupe 17" transform="translate(27.3 38.063)">
      <path id="Tracé_66" data-name="Tracé 66" d="M82.727,97.706a33.879,33.879,0,0,0,0,47.91l1.3,1.294a7.259,7.259,0,0,0,10.266-10.266l-1.3-1.294a19.359,19.359,0,0,1,0-27.377l61.6,61.6v32.148a10.266,10.266,0,1,0,20.533,0V159.3l-17.111-17.111,17.111-17.111L196.247,146.2a9.679,9.679,0,0,0,13.689-13.689l-34.81-34.807-27.377,27.377L120.371,97.706V94.284a27.377,27.377,0,0,0,27.377-27.377v-.589a6.844,6.844,0,0,0-13.689,0A14.277,14.277,0,0,1,119.782,80.6,48.15,48.15,0,0,0,85.735,94.7Z" transform="translate(-65.617 -56.64)" fill="#f8b127"/>
      <circle id="Ellipse_5" data-name="Ellipse 5" cx="17.111" cy="17.111" r="17.111" fill="#f8b127"/>
    </g>
  </g>
</svg>
