<svg xmlns="http://www.w3.org/2000/svg" width="138.852" height="119.016" viewBox="0 0 138.852 119.016">
  <g id="heart-attack" transform="translate(-11 -14)">
    <g id="Groupe_3" data-name="Groupe 3" transform="translate(11 14)">
      <g id="Groupe_1" data-name="Groupe 1">
        <path id="Tracé_14" data-name="Tracé 14" d="M109.559,14h-.592A40.029,40.029,0,0,0,80.479,25.8l-.053.056L80.37,25.8A40.023,40.023,0,0,0,51.882,14H51.29a40.316,40.316,0,0,0-10.536,1.418s-9.541,3.405-14.645,7.92a77.806,77.806,0,0,0-9.512,10.5,40.246,40.246,0,0,0,6.986,49.706l48.866,46.294a11.6,11.6,0,0,0,15.955,0L137.27,83.542A40.291,40.291,0,0,0,109.559,14Z" transform="translate(-11 -14)" fill="#f8b127"/>
      </g>
      <g id="Groupe_2" data-name="Groupe 2" transform="translate(4.597 29.304)">
        <path id="Tracé_15" data-name="Tracé 15" d="M137.266,46.456H104.138L90.495,22.864,73.835,70.877,67.218,53.068l-60.711.041,4.51,6.405,52.422.166L74.022,88.154,91.771,36.987l9.3,16.08h35.082S140.84,46.456,137.266,46.456Z" transform="translate(-6.506 -22.864)" fill="#fff"/>
      </g>
    </g>
  </g>
</svg>
