<?xml version="1.0" encoding="utf-8"?>
<!-- Generator: Adobe Illustrator 24.0.0, SVG Export Plug-In . SVG Version: 6.00 Build 0)  -->
<svg version="1.1" id="Layer_1" xmlns="http://www.w3.org/2000/svg" xmlns:xlink="http://www.w3.org/1999/xlink" x="0px" y="0px"
	 viewBox="0 0 138.9 119" style="enable-background:new 0 0 138.9 119;" xml:space="preserve">
<style type="text/css">
	.st0{fill-rule:evenodd;clip-rule:evenodd;fill:#F8B127;}
	.st1{fill:#F8B127;}
</style>
<g>
	<g>
		<g>
			<path class="st0" d="M122.7,50.3c6.2-8.1,5.2-11.6,1.5-16.1C111.4,18.7,103,20.8,96,27l5.7,4.8c-1.3,4.8-1.3,8.4-3.7,11.1
				c-1.1,1.3-2.8,2.4-5.4,3.5c-4.6,1.8-9.2,3.6-13.8,5.4c-6.3-1.8-12.6-3.6-19-5.4c-7.9-2.3-15.9-4.5-23.8-6.8l-1.7-5.3
				c-1-3-3-4.5-6.6-5.1L4.5,25.3c5.6,13.2,7.5,16.3,14.9,20l19.8,9.8c5.3,2.6,7.9,5,9.9,10.6l8.4,24.2H86c-0.9-3-1.5-6.1-1.5-9.4
				c0-17.1,13.9-31,31-31C117.9,49.5,120.4,49.8,122.7,50.3L122.7,50.3z"/>
			<path class="st0" d="M97.9,42.9c-17-9.7-26.6-17.9-38.2,3.4c6.3,1.8,12.6,3.6,19,5.4c4.6-1.8,9.2-3.6,13.8-5.4
				C95.1,45.4,96.8,44.3,97.9,42.9z"/>
			<g>
				<path class="st0" d="M43.6,80.5c0-11.2-9-20.2-20.2-20.2s-20.2,9-20.2,20.2c0,11.2,9,20.2,20.2,20.2S43.6,91.6,43.6,80.5z
					 M23.4,71c5.2,0,9.4,4.2,9.4,9.4c0,5.2-4.2,9.4-9.4,9.4S14,85.7,14,80.5C14,75.3,18.2,71,23.4,71z"/>
				<path class="st0" d="M110.2,60.9c-8.6,2.3-15,10.2-15,19.5c0,11.2,9,20.2,20.2,20.2c11.2,0,20.2-9,20.2-20.2
					c0-11.2-9-20.2-20.2-20.2C113.7,60.3,111.9,60.5,110.2,60.9L110.2,60.9z M106,80.5c0-4.4,3-8,7-9.1c0.8-0.2,1.6-0.3,2.4-0.3
					c5.2,0,9.4,4.2,9.4,9.4c0,5.2-4.2,9.4-9.4,9.4C110.3,89.9,106,85.7,106,80.5z"/>
			</g>
		</g>
		<g>
			<path class="st1" d="M115.5,57.6c-1.1,0-2.2,0.1-3.3,0.2l-1.4-5.2c1.5-0.3,3.1-0.4,4.7-0.4c2.2,0,4.4,0.3,6.6,0.8
				c1,0.2,2.1-0.1,2.8-1c6.3-8.2,6.6-13.2,1.4-19.5c-6.7-8.2-12.9-12.3-18.8-12.8c-4.5-0.3-8.8,1.4-13.2,5.3c-0.6,0.5-0.9,1.3-0.9,2
				c0,0.8,0.4,1.5,0.9,2l4.4,3.8c-0.2,0.8-0.3,1.5-0.5,2.2c-0.4,1.8-0.7,3.1-1.1,4.3c-0.6-0.4-1.3-0.7-1.9-1.1
				c-9-5.3-16.2-9.5-23.4-7.5c-4.8,1.3-9.1,5.3-13.2,12.4l-20.4-5.8l-1.3-3.9c-1.3-4-4.1-6.2-8.7-6.9L5,22.6c-1-0.2-2,0.2-2.6,1
				c-0.6,0.8-0.8,1.8-0.4,2.7C7.8,40,10,43.6,18.2,47.6L38,57.5c5.1,2.5,6.9,4.5,8.5,9l3.9,11.2h-4.3c-1.3-11.4-11-20.2-22.7-20.2
				c-12.6,0-22.9,10.3-22.9,22.9s10.3,22.9,22.9,22.9c11.7,0,21.4-8.8,22.7-20.2h6.2l2.6,7.6c0.4,1.1,1.4,1.8,2.5,1.8H86
				c0.9,0,1.7-0.4,2.2-1.1c0.5-0.7,0.7-1.6,0.4-2.4c-0.9-2.8-1.3-5.7-1.3-8.6c0-12.1,7.7-22.5,18.4-26.5l1.4,5.2
				c-8.4,3.4-14.4,11.6-14.4,21.2c0,12.6,10.3,22.9,22.9,22.9s22.9-10.3,22.9-22.9S128.1,57.6,115.5,57.6L115.5,57.6z M23.4,98
				c-9.6,0-17.5-7.9-17.5-17.5S13.7,63,23.4,63c8.7,0,16,6.4,17.3,14.8h-5.5c-1.2-5.4-6.1-9.4-11.8-9.4c-6.7,0-12.1,5.4-12.1,12.1
				c0,6.7,5.4,12.1,12.1,12.1c5.8,0,10.6-4,11.8-9.4h5.5C39.4,91.5,32.1,98,23.4,98z M23.4,83.1h6.2c-1,2.4-3.4,4-6.2,4
				c-3.7,0-6.7-3-6.7-6.7s3-6.7,6.7-6.7c2.8,0,5.1,1.7,6.2,4h-6.2c-1.5,0-2.7,1.2-2.7,2.7C20.7,81.9,21.9,83.1,23.4,83.1z
				 M73.2,35.9c5.1-1.4,11.3,2.3,19.3,6.9c0.2,0.1,0.4,0.2,0.6,0.4c-0.5,0.2-1,0.4-1.5,0.7l-12.9,5.1l-14.8-4.2
				C67,39.7,70,36.8,73.2,35.9z M87.5,61.7h-8.8c-1.5,0-2.7,1.2-2.7,2.7c0,1.5,1.2,2.7,2.7,2.7h5.9c-0.7,1.7-1.4,3.5-1.8,5.4H72.7
				c-1.5,0-2.7,1.2-2.7,2.7s1.2,2.7,2.7,2.7h9.3c-0.1,0.8-0.1,1.7-0.1,2.6c0,2.3,0.2,4.5,0.7,6.7H59.4l-7.8-22.4
				c-2.3-6.6-5.7-9.4-11.2-12.1l-19.8-9.8C15,40.1,13.1,38,9,28.8l18.2,3.1c0,0,0,0,0.1,0c3,0.4,3.8,1.5,4.4,3.2l1.7,5.3
				c0.3,0.9,1,1.5,1.8,1.8L78,54.4c0.6,0.2,1.2,0.1,1.7-0.1l13.8-5.4c7.9-3.1,8.8-7.6,9.9-12.8c0.2-1.1,0.5-2.3,0.8-3.6
				c0.3-1-0.1-2.1-0.9-2.7l-3.2-2.7c2.3-1.6,4.5-2.2,6.8-2.1c4.4,0.3,9.5,4,15.1,10.9c1.3,1.6,2.4,2.9,2.4,4.8l-3.7-1.5
				c-1.4-0.6-2.9,0.1-3.5,1.5c-0.6,1.4,0.1,2.9,1.5,3.5l3.8,1.6c-0.3,0.5-0.7,1-1.1,1.6c-2-0.4-4-0.5-6.1-0.5
				C103.8,46.8,93.6,52.7,87.5,61.7L87.5,61.7z M115.5,98C105.8,98,98,90.1,98,80.5c0-7.1,4.3-13.3,10.4-16l1.4,5.3
				c-3.8,2-6.5,6.1-6.5,10.7c0,6.7,5.4,12.1,12.1,12.1c6.7,0,12.1-5.4,12.1-12.1c0-6.7-5.4-12.1-12.1-12.1c-0.2,0-0.3,0-0.5,0
				l-1.4-5.3c0.6-0.1,1.2-0.1,1.9-0.1c9.6,0,17.5,7.9,17.5,17.5S125.1,98,115.5,98L115.5,98z M112.9,81.2c0.3,1.2,1.4,2,2.6,2
				c0.2,0,0.5,0,0.7-0.1c1.4-0.4,2.3-1.9,1.9-3.3l-1.6-6c3.2,0.5,5.7,3.3,5.7,6.7c0,3.7-3,6.7-6.7,6.7s-6.7-3-6.7-6.7
				c0-2.1,1-4,2.5-5.3L112.9,81.2z"/>
			<path class="st1" d="M66.6,61.7L66.6,61.7c-1.5,0-2.7,1.2-2.7,2.7c0,1.5,1.2,2.7,2.7,2.7c1.5,0,2.7-1.2,2.7-2.7
				C69.3,63,68.1,61.7,66.6,61.7z"/>
		</g>
	</g>
</g>
</svg>
