<?xml version="1.0" encoding="utf-8"?>
<!-- Generator: Adobe Illustrator 24.0.0, SVG Export Plug-In . SVG Version: 6.00 Build 0)  -->
<svg version="1.1" id="Layer_1" xmlns="http://www.w3.org/2000/svg" xmlns:xlink="http://www.w3.org/1999/xlink" x="0px" y="0px"
	 viewBox="0 0 429.2 333" style="enable-background:new 0 0 429.2 333;" xml:space="preserve">
<style type="text/css">
	.st0{fill:#2E88E8;}
	.st1{fill:#409EF2;}
	.st2{fill:#2071D3;}
	.st3{fill:#9AC427;}
	.st4{fill:#AED839;}
	.st5{fill:#87B71D;}
	.st6{fill:#FFC024;}
	.st7{fill:#FFFFFF;}
	.st8{fill:#ECECEC;stroke:#3F3E62;stroke-width:1.518;stroke-linecap:round;stroke-linejoin:round;stroke-miterlimit:10;}
	.st9{fill:#E7ECEF;}
	.st10{fill:#D5D5D5;stroke:#3F3E62;stroke-width:1.518;stroke-linecap:round;stroke-linejoin:round;stroke-miterlimit:10;}
	.st11{fill:#9CC6EA;stroke:#3F3E62;stroke-width:1.518;stroke-linecap:round;stroke-linejoin:round;stroke-miterlimit:10;}
	.st12{fill:#B7D1E0;}
	.st13{fill:none;stroke:#3F3E62;stroke-width:1.518;stroke-linecap:round;stroke-linejoin:round;stroke-miterlimit:10;}
	.st14{fill:#45446C;stroke:#3F3E62;stroke-width:1.518;stroke-linecap:round;stroke-linejoin:round;stroke-miterlimit:10;}
	.st15{fill:#BBC5CA;}
	.st16{fill:#45446C;}
	.st17{fill:#FFD130;stroke:#424166;stroke-width:1.518;stroke-linecap:round;stroke-linejoin:round;stroke-miterlimit:10;}
	.st18{fill:#B8C7D0;}
	.st19{fill:#E8497C;stroke:#3F3E62;stroke-width:1.518;stroke-linecap:round;stroke-linejoin:round;stroke-miterlimit:10;}
	.st20{fill:#CCB0BE;}
</style>
<g>
	<g>
		<g>
			
				<ellipse transform="matrix(0.9874 -0.158 0.158 0.9874 -21.5363 44.2546)" class="st0" cx="267.5" cy="157.5" rx="115.5" ry="115.5"/>
			
				<ellipse transform="matrix(0.7071 -0.7071 0.7071 0.7071 -21.9368 221.0568)" class="st1" cx="255.9" cy="137" rx="79.4" ry="79.4"/>
			<path class="st2" d="M283.5,43.1c-63.2-8.8-121.6,35.2-130.4,98.4c-8.8,63.2,35.2,121.6,98.4,130.4
				c63.2,8.8,121.6-35.2,130.4-98.4C390.7,110.3,346.7,51.9,283.5,43.1z M379.4,173.2c-8.6,61.8-65.8,104.9-127.6,96.3
				c-61.8-8.6-104.9-65.8-96.3-127.6c8.6-61.8,65.8-104.9,127.6-96.3C345,54.2,388.1,111.4,379.4,173.2z"/>
			<g>
				<path class="st3" d="M183.2,228.5c0.6-1.5,4.4-2.2,5.1-3.6c2.6-5,2.3-17.3,0.2-22.5c-2.6-6.4-17-13.1-19.5-19.5
					c-1.3-3.4,1.8-11.2,0.6-14.6c-1.4-4-9.3-8.9-11.2-12.7c-1-2.1-0.3-7.4-1.8-9.2c-0.6-0.7-3.2-1.5-3.9-1.7
					c-4.1,35.8,8.8,69.8,32.4,93.9c0.4,0.3,0.7,0.4,0.7,0.4S182.2,231,183.2,228.5z"/>
				<path class="st3" d="M176.6,95c3.7-2.8,13.5-3.3,17.5-5.5c2.8-1.6,7.7-5.8,9.5-8.4c1.8-2.7,6.3-9.9,4-12.1
					c-2-1.9-8.6,6-10.4,3.8c-1.5-1.8,3-6.7,4.9-8.2c1.6-1.4,5.8-2.5,7.8-3c2.4-0.7,7.5-0.8,9.8-1.8c5-2.2,17.1-13.5,17.1-13.5
					s-0.1,0-0.4,0c-32.2,9-59.4,31.8-73.7,62.5c1.4-1.1,8.1-6.2,10.1-8.2C174,99.3,175.2,96,176.6,95z"/>
				<path class="st3" d="M246.2,49.7c1.7,1.6,7.2-0.2,9.3,0.9c1.5,0.8,2.7,4.5,4.2,5.1c3.7,1.4,12.1-0.4,15.7-2.1
					c3.3-1.6,10.7-9.9,10.7-9.9s-0.1,0-0.2-0.1c-0.8-0.1-1.7-0.3-2.5-0.4c-12.5-1.7-24.8-1.4-36.6,0.7c-0.5,0.2-1,0.4-1.6,0.6
					C245.3,44.4,245.2,48.8,246.2,49.7z"/>
				<path class="st3" d="M238,70c4.3-1.6,14.7-6.7,14.6-11.3c0-1.9-4.3-3.9-6.2-4.3c-2.8-0.6-8.8,0.3-11.1,1.9
					c-2,1.3-3.1,6.6-4.9,8.2c-2.4,2.1-9.5,2.8-11.6,5.2c-1.4,1.6-3.9,6.8-2.2,8.1c2.9,2.3,9.3-6.2,12.8-7.3
					C231.5,69.8,236,70.7,238,70z"/>
				<path class="st3" d="M291.1,51.6c0.8,2.7,8.5,5,8.3,7.8c-0.1,2.1-6,3-6.8,4.9c-0.6,1.5,2,4.9,1.2,6.3c-0.5,0.9-3.1,0.8-3.9,1.4
					c-1.4,1.1-2.9,4.4-3.7,6c-0.7,1.5-1.4,4.9-2.4,6.2c-1.3,1.6-5.1,4-7.1,4.6c-2.8,0.8-8.9-1.1-11.6,0c-2.3,0.9-5.2,5.4-7.3,6.8
					c-1.4,0.9-5.1,1.1-6,2.4c-1,1.5,1.3,5.8,0.1,7c-1.5,1.3-5.1,0.1-6.8,1.3c-2,1.4-4.5,5.2-3.4,7.5c0.6,1.4,3.8,2.6,5.3,2.8
					c2.1,0.2,5.2-1.3,6.4-3c0.7-1,0.9-3.3,1.4-4.4c1.4-2.8,7.2-6.6,10.3-6.9c2.3-0.2,6.6,2.2,8.4,3.5c1.6,1.1,3.4,5,5.2,5.8
					c1.6,0.7,5.4,0.8,7,0.3c1.5-0.5,3.4-3.9,5-4.2c1-0.2,3.4,0.5,4,1.3c0.6,0.8-0.4,3.4,0.2,4.3c1,1.4,4.8,2.7,6.5,2.4
					c1.3-0.2,2.8-3.4,4.1-3.3c1.5,0.2,3.5,3.5,3.6,5c0.1,1.6-1.9,5-3.4,5.7c-1.8,0.8-5.7-1.3-7.7-1.4c-2.9-0.2-9-0.8-11.6,0.6
					c-1,0.6-1.5,3.3-2.5,3.8c-1.2,0.6-4.2,0.5-5.5,0c-2.2-0.8-5.2-4.6-7-6c-1.4-1.1-3.9-3.7-5.6-4.1c-5.5-1.2-17.5,1.5-22.1,4.9
					c-3.2,2.4-5,11-7.8,13.8c-1.9,1.9-8.1,3-9.5,5.4c-3.9,6.5-4.2,23.7-0.9,30.5c1.9,3.9,9.7,9.2,13.9,10.3c3.8,1,12.1-0.5,15.7-2
					c2-0.8,4.9-5,7-5.2c3.1-0.3,10.4,2.5,11.3,5.5c0.6,2.1-4.7,5.4-4.5,7.5c0.4,3.9,9.6,7.8,10.3,11.7c0.8,3.9-5.8,11-5.3,14.9
					c0.7,6.9,7.9,21.8,14.6,23.6c7.1,2,21.7-7.6,26.1-13.5c2.3-3,0.9-11.6,2.9-14.8c1.2-1.9,6-3.3,7-5.2c2.8-5.1-1.5-18.1,1.3-23.2
					c1.6-2.9,8.8-5.1,10.6-7.9c2.6-4,7-14.9,3.9-18.5c-1.8-2.1-8.5,1.8-10.9,0.6c-5.2-2.5-17-14.6-13.2-18.8
					c3.1-3.5,11.7,9,16.3,8.9c3.8-0.1,12.2-4.3,13-8c0.6-2.7-3.3-8.4-6-9.1c-1.7-0.5-4.6,3.7-6.2,3.1c-3.3-1.4-6.7-10.9-4.3-13.5
					c2.9-3.2,12.4,3.4,16.6,3.7c2.3,0.2,7.1-1.5,9.1-0.5c3.4,1.6,6.9,9.1,8.9,12.4c1.9,3.2,2.9,11.8,6.2,13.4
					c0.8,0.4,2.9-0.1,3.3-0.8c1.4-2.2-0.9-7.9-2-10.3c-0.8-1.8-4.3-4.3-4.9-6.2c-1.4-4.3-3.4-16.7,0.9-18c2.6-0.8,3.9,8.4,6.7,8.8
					c0.5,0.1,1.8-1.3,1.8-1.3s0-0.1-0.1-0.3c-13.2-35.9-43.9-64.1-83.1-72.9C292.7,45.4,290.7,50,291.1,51.6z"/>
				<path class="st3" d="M340.2,209.2c1.8,0.5,1.9,5.4,1.7,7.2c-0.4,4-3.4,12.3-6.5,14.9c-1.5,1.3-6.1,2.8-7.8,1.7
					c-1.4-0.9-2.3-5-1.7-6.5c0.8-1.8,5.9-2.1,7.1-3.7c1-1.4,0.3-5.1,1-6.7C335,214,337.9,208.6,340.2,209.2z"/>
			</g>
			<g>
				<path class="st4" d="M203.6,81c0.9-1.4,2.7-4.2,3.8-6.8c-6,4.7-11.3,10.2-15.8,16.3c1-0.3,1.9-0.6,2.6-1
					C196.9,87.9,201.8,83.6,203.6,81z"/>
				<path class="st4" d="M230.5,64.4c-2.4,2.1-9.5,2.8-11.6,5.2c-1.4,1.6-3.9,6.8-2.2,8.1c2.9,2.3,9.3-6.2,12.8-7.3
					c2.1-0.6,6.6,0.3,8.6-0.4c4.3-1.6,14.7-6.7,14.6-11.3c0-0.3-0.1-0.6-0.3-0.9c-0.2,0-0.3,0-0.5,0c-6.7,0.3-13.2,1.5-19.4,3.4
					C231.8,62.5,231.2,63.7,230.5,64.4z"/>
				<path class="st4" d="M293.9,70.6c-0.5,0.9-3.1,0.8-3.9,1.4c-1.4,1.1-2.9,4.4-3.7,6c-0.7,1.5-1.4,4.9-2.4,6.2
					c-1.3,1.6-5.1,4-7.1,4.6c-2.8,0.8-8.9-1.1-11.6,0c-2.3,0.9-5.2,5.4-7.3,6.8c-1.4,0.9-5.1,1.1-6,2.4c-1,1.5,1.3,5.8,0.1,7
					c-1.5,1.3-5.1,0.1-6.8,1.3c-2,1.4-4.5,5.2-3.4,7.5c0.6,1.4,3.8,2.6,5.3,2.8c2.1,0.2,5.2-1.3,6.4-3c0.7-1,0.9-3.3,1.4-4.4
					c1.4-2.8,7.2-6.6,10.3-6.9c2.3-0.2,6.6,2.2,8.4,3.5c1.6,1.1,3.4,5,5.2,5.8c1.6,0.7,5.4,0.8,7,0.3c1.5-0.5,3.4-3.9,5-4.2
					c1-0.2,3.4,0.5,4,1.3c0.6,0.8-0.4,3.4,0.2,4.3c1,1.4,4.8,2.7,6.5,2.4c1.3-0.2,2.8-3.4,4.1-3.3c1.5,0.2,3.5,3.5,3.6,5
					c0.1,1.6-1.9,5-3.4,5.7c-1.8,0.8-5.7-1.3-7.7-1.4c-2.9-0.2-9-0.8-11.6,0.6c-1,0.6-1.5,3.3-2.5,3.8c-1.2,0.6-4.2,0.5-5.5,0
					c-2.2-0.8-5.2-4.6-7-6c-1.4-1.1-3.9-3.7-5.6-4.1c-5.5-1.2-17.5,1.5-22.1,4.9c-3.2,2.4-5,11-7.8,13.8c-1.9,1.9-8.1,3-9.5,5.4
					c-3.9,6.5-4.2,23.7-0.9,30.5c1.9,3.9,9.7,9.2,13.9,10.3c3.8,1,12.1-0.5,15.7-2c2-0.8,4.9-5,7-5.2c3.1-0.3,10.4,2.5,11.3,5.5
					c0.6,2.1-4.7,5.4-4.5,7.5c0.4,3.9,9.6,7.8,10.3,11.7c0.8,3.9-5.8,11-5.3,14.9c0,0.4,0.1,0.7,0.2,1.1
					c29.6-7.1,52.4-30.7,58.9-60.1c-1.4,0.3-2.7,0.5-3.5,0.1c-5.2-2.5-17-14.6-13.2-18.8c3.1-3.5,11.7,9,16.3,8.9
					c0.6,0,1.2-0.1,1.9-0.3c0.3-3.6,0.4-7.3,0.2-11c0-1-0.1-1.9-0.2-2.9c-0.4,0.2-0.8,0.2-1.1,0.1c-3.3-1.4-6.7-10.9-4.3-13.5
					c0.7-0.7,1.7-0.9,2.9-0.8c-5.9-21.3-20.3-38.8-39.2-48.9C293.7,68.3,294.4,69.8,293.9,70.6z"/>
			</g>
			<g>
				<path class="st5" d="M183.7,233.4c-20.9-23.1-32.2-54.7-28.6-88c-0.9-0.4-2-0.7-2.4-0.9c-2,18.7,0.1,37.2,7.4,55.5
					c7.6,19.2,21.6,36.3,25.7,38.8C185.7,238.9,184.5,236.2,183.7,233.4z"/>
				<path class="st5" d="M232.4,50c2.5-2.2,4.4-3.9,4.4-3.9c-6.1,0.4-27.6,9.4-43.8,23c-15.9,13.4-28.4,32.7-30.3,39.5
					c0.7-0.5,2.6-2,4.6-3.5C181,78.9,204.6,59.1,232.4,50z"/>
				<path class="st5" d="M245.4,46.7c12.7-2.5,25.8-2.8,38.8-0.9c1.2-1.3,2-2.2,2-2.2c-1.7-1-16.8-1.6-19-1.6
					c-3.7-0.3-17.9,0.8-21.9,2.4C245.3,44.4,245.3,45.5,245.4,46.7z"/>
				<path class="st5" d="M292,47.2c38.7,8.6,69,36.5,81.8,71.9c0.9,0.5,2.4-0.9,2.2-1.4c-13.4-36.5-44.5-64.2-83.1-72.9
					C292.8,45.1,292.4,46,292,47.2z"/>
			</g>
		</g>
		<path class="st6" d="M277.2,312.8l-0.2-2.5c2.5-0.2,5-0.4,7.5-0.6l0.3,2.5C282.2,312.5,279.7,312.7,277.2,312.8z M269.6,313.1
			c-2.5,0-5.1,0-7.6-0.1l0.1-2.5c2.5,0.1,5,0.1,7.5,0.1L269.6,313.1z M292.3,311.1l-0.4-2.5c2.5-0.4,4.9-0.9,7.4-1.4l0.5,2.5
			C297.3,310.3,294.8,310.7,292.3,311.1z M254.4,312.6c-2.5-0.2-5-0.5-7.6-0.8l0.3-2.5c2.5,0.3,5,0.6,7.4,0.8L254.4,312.6z
			 M307.1,308l-0.6-2.4c2.4-0.6,4.8-1.3,7.2-2.1l0.8,2.4C312,306.6,309.6,307.4,307.1,308z M239.3,310.5c-2.5-0.5-5-1-7.4-1.6
			l0.6-2.4c2.4,0.6,4.9,1.1,7.3,1.5L239.3,310.5z M321.6,303.4l-0.9-2.4c2.3-0.9,4.7-1.8,6.9-2.8l1,2.3
			C326.4,301.6,324,302.5,321.6,303.4z M224.5,307.1c-2.4-0.7-4.9-1.5-7.3-2.3l0.8-2.4c2.4,0.8,4.7,1.5,7.1,2.2L224.5,307.1z
			 M335.6,297.4l-1.1-2.3c2.2-1.1,4.5-2.2,6.6-3.4l1.2,2.2C340.1,295.1,337.9,296.3,335.6,297.4z M210.1,302.2c-2.4-0.9-4.7-1.9-7-3
			l1-2.3c2.3,1,4.6,2,6.9,2.9L210.1,302.2z M348.9,290.1l-1.3-2.1c2.1-1.3,4.2-2.7,6.3-4.1l1.4,2.1
			C353.2,287.4,351.1,288.8,348.9,290.1z M196.3,295.9c-2.3-1.2-4.5-2.4-6.7-3.6l1.3-2.2c2.2,1.3,4.3,2.4,6.6,3.6L196.3,295.9z
			 M183.1,288.3c-2.1-1.4-4.2-2.8-6.3-4.3l1.5-2c2,1.5,4.1,2.9,6.2,4.2L183.1,288.3z M170.7,279.4c-2-1.6-3.9-3.2-5.8-4.9l1.7-1.9
			c1.9,1.6,3.8,3.2,5.7,4.8L170.7,279.4z M159.3,269.4c-1.8-1.8-3.6-3.6-5.3-5.4l1.8-1.7c1.7,1.8,3.5,3.6,5.2,5.3L159.3,269.4z
			 M148.9,258.3c-1.6-1.9-3.2-3.9-4.8-5.9l2-1.5c1.5,2,3.1,3.9,4.7,5.8L148.9,258.3z M139.7,246.2c-1.4-2.1-2.8-4.2-4.2-6.3l2.1-1.3
			c1.3,2.1,2.7,4.2,4.1,6.2L139.7,246.2z M131.6,233.4c-1.2-2.2-2.4-4.4-3.5-6.7l2.3-1.1c1.1,2.2,2.3,4.4,3.5,6.6L131.6,233.4z
			 M124.9,219.8c-1-2.3-2-4.7-2.9-7l2.3-0.9c0.9,2.3,1.8,4.6,2.8,6.9L124.9,219.8z M119.5,205.6c-0.8-2.4-1.5-4.8-2.2-7.3l2.4-0.7
			c0.7,2.4,1.4,4.8,2.1,7.2L119.5,205.6z M115.5,190.9c-0.5-2.5-1-4.9-1.4-7.4l2.5-0.4c0.4,2.5,0.9,4.9,1.4,7.3L115.5,190.9z
			 M112.9,176c-0.3-2.5-0.5-5-0.7-7.6l2.5-0.2c0.2,2.5,0.4,5,0.7,7.4L112.9,176z M114.4,160.7l-2.5,0c0-2.5,0-5.1,0-7.6l2.5,0.1
			C114.4,155.8,114.4,158.3,114.4,160.7z M114.8,145.8l-2.5-0.2c0.2-2.5,0.5-5,0.8-7.6l2.5,0.3C115.3,140.8,115,143.3,114.8,145.8z
			 M116.7,131l-2.5-0.4c0.4-2.5,0.9-5,1.5-7.5l2.5,0.6C117.6,126,117.1,128.5,116.7,131z M120,116.4l-2.4-0.7
			c0.7-2.5,1.4-4.9,2.2-7.3l2.4,0.8C121.4,111.6,120.7,114,120,116.4z M124.7,102.2l-2.3-0.9c0.9-2.4,1.9-4.7,2.9-7l2.3,1
			C126.6,97.5,125.6,99.8,124.7,102.2z"/>
		<path class="st6" d="M409.1,222.1l-2.3-1c0.9-2,1.8-4.1,2.6-6.2l2.3,0.9C410.9,217.9,410,220,409.1,222.1z M414.4,208.7l-2.4-0.8
			c0.8-2.3,1.6-4.7,2.3-7.1l2.4,0.7C416,203.9,415.3,206.3,414.4,208.7z M418.7,194.1l-2.4-0.6c0.6-2.4,1.1-4.9,1.6-7.3l2.5,0.5
			C419.8,189.2,419.3,191.7,418.7,194.1z M421.6,179.1l-2.5-0.1c0.4-2.7,0.6-5.1,0.9-7.5l2.5,0.2
			C422.2,174.1,421.9,176.6,421.6,179.1z M422.9,164.1l-2.5-0.1c0.1-2.5,0.2-5,0.1-7.5l2.5,0C423.1,159,423,161.5,422.9,164.1z
			 M420.4,149c-0.1-2.5-0.3-5-0.6-7.5l2.5-0.3c0.3,2.5,0.5,5,0.6,7.6L420.4,149z M418.8,134.1c-0.4-2.5-0.8-4.9-1.3-7.4l2.5-0.5
			c0.5,2.5,1,5,1.3,7.5L418.8,134.1z M415.8,119.5c-0.6-2.4-1.3-4.8-2-7.2l2.4-0.7c0.7,2.4,1.4,4.8,2.1,7.3L415.8,119.5z
			 M411.4,105.2c-0.9-2.3-1.8-4.7-2.7-7l2.3-1c1,2.3,1.9,4.7,2.8,7.1L411.4,105.2z M405.6,91.5c-1.1-2.3-2.2-4.5-3.4-6.7l2.2-1.2
			c1.2,2.2,2.4,4.5,3.5,6.8L405.6,91.5z M398.5,78.3c-1.3-2.1-2.6-4.2-4-6.3l2.1-1.4c1.4,2.1,2.8,4.2,4.1,6.4L398.5,78.3z
			 M390.1,65.9c-1.5-2-3-4-4.6-5.9l1.9-1.6c1.6,2,3.2,3.9,4.7,6L390.1,65.9z M380.6,54.4c-1.7-1.8-3.4-3.6-5.2-5.4l1.8-1.8
			c1.8,1.8,3.5,3.6,5.3,5.5L380.6,54.4z M370,43.8c-1.8-1.7-3.7-3.3-5.7-4.9l1.6-1.9c2,1.6,3.9,3.3,5.8,5L370,43.8z M358.4,34.3
			c-2-1.5-4-2.9-6.1-4.3l1.4-2.1c2.1,1.4,4.2,2.9,6.2,4.4L358.4,34.3z M346,26c-2.1-1.3-4.3-2.5-6.5-3.7l1.2-2.2
			c2.2,1.2,4.5,2.4,6.6,3.7L346,26z M332.7,19c-2.2-1.1-4.5-2.1-6.8-3l1-2.3c2.4,1,4.7,2,7,3.1L332.7,19z M195.7,22.3l-1.2-2.2
			c2.2-1.2,4.5-2.3,6.8-3.4l1.1,2.3C200.1,20,197.9,21.1,195.7,22.3z M318.9,13.3c-2.3-0.8-4.7-1.6-7.1-2.3l0.7-2.4
			c2.4,0.7,4.8,1.5,7.2,2.4L318.9,13.3z M209.2,15.9l-1-2.3c2.3-1,4.7-1.9,7.1-2.7l0.8,2.4C213.9,14.1,211.5,15,209.2,15.9z
			 M304.6,9c-2.4-0.6-4.8-1.1-7.3-1.6l0.5-2.5c2.5,0.5,5,1,7.4,1.7L304.6,9z M223.3,10.9l-0.7-2.4c2.4-0.7,4.9-1.4,7.3-2l0.6,2.4
			C228.1,9.5,225.7,10.2,223.3,10.9z M289.9,6.1l-1.3-0.2c-2.1-0.3-4.1-0.5-6.2-0.7l0.2-2.5c2.1,0.2,4.2,0.5,6.3,0.7l1.3,0.2
			L289.9,6.1z M237.8,7.3l-0.5-2.5c2.5-0.5,5-0.9,7.5-1.3l0.4,2.5C242.7,6.4,240.3,6.8,237.8,7.3z M275.1,4.6
			c-2.5-0.1-5-0.2-7.5-0.2l0-2.5c2.5,0,5.1,0.1,7.6,0.2L275.1,4.6z M252.6,5.1l-0.2-2.5c2.3-0.2,4.6-0.4,7-0.5l0.6,0l0.1,2.5l-0.6,0
			C257.2,4.7,254.9,4.9,252.6,5.1z"/>
		<g>
			<path class="st6" d="M192.1,45.1c0.9,17.7-12.7,32.7-30.3,33.6S129,66,128.1,48.4c-0.9-17.7,12.7-32.7,30.3-33.6
				S191.2,27.5,192.1,45.1z"/>
			<g>
				<path class="st7" d="M165.4,54.8c-0.1-1.3-0.5-2.3-1.2-3c-0.8-0.7-2.1-1.4-4-2c-3.6-1-6.3-2.3-8-3.7c-1.8-1.5-2.7-3.7-2.9-6.5
					c-0.1-2.6,0.6-4.8,2.2-6.6c1.6-1.8,3.9-2.9,6.8-3.3l-0.3-5l3.7-0.2l0.3,5.1c2.8,0.2,5.1,1.2,6.8,2.9c1.7,1.7,2.6,4,2.7,6.9
					l0,0.1l-6.7,0.3c-0.1-1.7-0.5-3-1.4-3.9c-0.8-0.9-1.9-1.3-3.3-1.2c-1.5,0.1-2.5,0.5-3.1,1.3c-0.6,0.8-0.9,1.8-0.8,3.1
					c0.1,1.2,0.5,2.1,1.2,2.8c0.7,0.7,2.1,1.4,4.1,2.1c3.5,0.9,6.2,2.2,8,3.7c1.8,1.5,2.8,3.7,2.9,6.6c0.1,2.7-0.6,4.9-2.2,6.6
					c-1.6,1.7-3.9,2.8-6.8,3.2l0.2,4.6l-3.7,0.2l-0.2-4.6c-3-0.1-5.5-1-7.5-2.6c-2-1.6-3.1-4.1-3.2-7.4l0.1-0.1l6.6-0.3
					c0.1,2,0.7,3.4,1.7,4.2c1,0.8,2.3,1.2,3.9,1.1c1.5-0.1,2.7-0.5,3.4-1.3C165.1,57.1,165.4,56.1,165.4,54.8z"/>
			</g>
			<path class="st7" d="M161.5,75.4c-15.8,0.8-29.3-11.4-30.2-27.2c-0.8-15.8,11.4-29.3,27.2-30.2c15.8-0.8,29.3,11.4,30.2,27.2
				C189.6,61.1,177.4,74.6,161.5,75.4z M158.7,19.1c-15.3,0.8-27.1,13.8-26.3,29.1c0.8,15.3,13.8,27.1,29.1,26.3
				c15.3-0.8,27.1-13.8,26.3-29.1C187,30.1,173.9,18.3,158.7,19.1z"/>
		</g>
		<g>
			<path class="st6" d="M408.9,261.2c0.8,15.2-10.9,28.1-26.1,28.9c-15.2,0.8-28.1-10.9-28.9-26.1s10.9-28.1,26.1-28.9
				C395.2,234.4,408.2,246,408.9,261.2z"/>
			<path class="st7" d="M382.7,287.3c-13.6,0.7-25.3-9.8-26-23.4c-0.7-13.6,9.8-25.3,23.4-26c13.6-0.7,25.3,9.8,26,23.4
				C406.9,275,396.4,286.6,382.7,287.3z M380.3,238.9c-13.1,0.7-23.2,11.8-22.5,24.9c0.7,13.1,11.8,23.2,24.9,22.5
				c13.1-0.7,23.2-11.8,22.5-24.9C404.5,248.3,393.4,238.2,380.3,238.9z"/>
		</g>
		<polygon class="st6" points="136.1,97.5 133.2,81.4 119.3,87.9 118.2,85.6 135.1,77.8 138.6,97 		"/>
		<polygon class="st6" points="400.8,234 398.2,214.7 400.6,214.3 402.8,230.5 417,224.6 418,227 		"/>
	</g>
	<g>
		<g>
			<path class="st7" d="M362.4,252.8l6.4-0.3c6.6-0.3,11.3,2.5,11.7,10.1c0.4,7.6-4,11.1-10.2,11.5l-6.7,0.3L362.4,252.8z
				 M369.3,269.6c3.1-0.2,5.5-1.5,5.3-6.6c-0.3-5.1-2.8-6-5.9-5.8l-0.3,0l0.6,12.4L369.3,269.6z"/>
			<path class="st7" d="M381.8,251.9l5.7-0.3l0.4,8l6.5-0.3l-0.4-8l5.7-0.3l1.1,21.6l-5.7,0.3l-0.4-8.6l-6.5,0.3l0.4,8.6l-5.7,0.3
				L381.8,251.9z"/>
		</g>
	</g>
</g>
<g>
	<g>
		<g>
			<polygon class="st8" points="237.6,278.1 70.2,328.6 6.2,116.2 151.5,72.4 180.3,88.3 			"/>
			<path class="st9" d="M169.6,82.5c1,3.5,43.2,140.5,46.7,152.7c1.7,5.8,8.7,27.1,8.3,32c-0.2,3-1.4,5.1-4.2,6.4
				c-4.2,2-106.3,32.7-152.8,46.7l2.5,8.3l167.4-50.5L180.3,88.3L169.6,82.5z"/>
			<polygon class="st10" points="151.4,72.3 158.1,94.9 180.3,88.3 			"/>
			<g>
				<g>
					<g>
						
							<rect x="38.8" y="151.5" transform="matrix(0.9574 -0.2889 0.2889 0.9574 -40.4506 38.0497)" class="st11" width="139.8" height="9.2"/>
						
							<rect x="39.5" y="156.5" transform="matrix(0.9575 -0.2886 0.2886 0.9575 -41.0869 38.32)" class="st12" width="139.8" height="4.1"/>
					</g>
					<g>
						
							<rect x="43.3" y="166.4" transform="matrix(0.9574 -0.2889 0.2889 0.9574 -44.5561 39.9799)" class="st11" width="139.8" height="9.2"/>
						
							<rect x="44" y="171.5" transform="matrix(0.9574 -0.2888 0.2888 0.9574 -45.2343 40.2901)" class="st12" width="139.8" height="3.9"/>
					</g>
				</g>
				<g>
					
						<rect x="62.8" y="186" transform="matrix(0.9574 -0.2889 0.2889 0.9574 -62.9385 48.6248)" class="st13" width="141" height="103"/>
					<line class="st13" x1="102.2" y1="199.5" x2="130.2" y2="292.4"/>
					
						<rect x="49.5" y="187.5" transform="matrix(0.9574 -0.2889 0.2889 0.9574 -50.8139 42.9231)" class="st14" width="141.1" height="12.2"/>
					
						<rect x="50.3" y="193.4" transform="matrix(0.9574 -0.2889 0.2889 0.9574 -51.6024 43.2948)" class="st15" width="141.1" height="6.2"/>
					<line class="st13" x1="62.8" y1="247.2" x2="197.2" y2="206.7"/>
					<line class="st13" x1="71.2" y1="275.1" x2="205.6" y2="234.6"/>
				</g>
			</g>
			<g>
				<g>
					<g>
						<g>
						</g>
					</g>
					
						<rect x="108.7" y="117.9" transform="matrix(0.9574 -0.2889 0.2889 0.9574 -29.3942 44.3578)" class="st12" width="53.9" height="7.6"/>
				</g>
				<g>
					
						<rect x="42.6" y="148.2" transform="matrix(0.9574 -0.2889 0.2889 0.9574 -40.0541 27.3481)" class="st16" width="60" height="2.3"/>
					
						<rect x="35.6" y="124.9" transform="matrix(0.9574 -0.2889 0.2889 0.9574 -33.6192 24.3228)" class="st16" width="60" height="2.3"/>
					<g>
						<g>
							<path class="st16" d="M65.7,140.4L65.7,140.4l-7-8.7c-0.4-0.5-1.1-0.7-1.7-0.5l-1.1,0.3c-0.6,0.2-1.1,0.7-1.1,1.4L53.6,144
								c0,0,0,0,0,0l-0.7,6.8c-0.1,0.9,0.6,1.6,1.4,1.7c0.2,0,0.4,0,0.6-0.1c0.6-0.2,1.1-0.7,1.1-1.4l0.6-5.7l7.2-2.2l3.6,4.5
								c0.6,0.7,1.5,0.8,2.2,0.2c0.7-0.5,0.8-1.5,0.2-2.2L65.7,140.4z M57,142l0.6-6.5l4.1,5L57,142z"/>
							<path class="st16" d="M80,124.5c-0.8-0.3-1.7,0.1-2,1l-2.8,7.8l-6.2-5c-0.7-0.6-1.7-0.4-2.2,0.2c-0.6,0.7-0.4,1.7,0.2,2.2
								l7.1,5.8l-3.1,8.7c-0.3,0.8,0.1,1.7,1,2c0.3,0.1,0.7,0.1,1,0c0.5-0.1,0.9-0.5,1-1l2.7-7.6l6.1,4.9c0.4,0.3,1,0.4,1.5,0.3
								c0.3-0.1,0.6-0.3,0.8-0.5c0.6-0.7,0.4-1.7-0.2-2.2l-6.9-5.7l3.1-8.9C81.2,125.7,80.8,124.8,80,124.5z"/>
							<path class="st16" d="M50.3,136.6c0.8-0.3,1.3-1.1,1.1-2c-0.3-0.8-1.1-1.3-2-1.1l-10.5,3.2c-0.8,0.3-1.3,1.1-1.1,2
								c0.3,0.8,1.1,1.3,2,1.1l3.7-1.1l4.2,14.1c0.3,0.8,1.1,1.3,2,1.1c0.8-0.3,1.3-1.1,1.1-2l-4.2-14.1L50.3,136.6z"/>
						</g>
					</g>
				</g>
			</g>
		</g>
		<g>
			<polygon class="st8" points="340.6,329.2 166.3,316.4 182.5,95.2 334,106.3 355.1,131.5 			"/>
			<path class="st9" d="M347.2,122.2c-0.3,3.6-10,146.7-11.1,159.3c-0.5,6.1-1.6,28.4-3.7,32.9c-1.3,2.7-3.2,4.3-6.2,4.5
				c-4.6,0.4-111-7.6-159.4-11.1l-0.6,8.6l174.3,12.8l14.5-197.7L347.2,122.2z"/>
			<polygon class="st10" points="333.8,106.2 332,129.7 355.1,131.5 			"/>
			<g>
				<g>
					
						<rect x="260.2" y="84.9" transform="matrix(7.312330e-02 -0.9973 0.9973 7.312330e-02 91.0475 401.0323)" class="st16" width="2.2" height="133.2"/>
					
						<rect x="262.1" y="59.7" transform="matrix(7.312379e-02 -0.9973 0.9973 7.312379e-02 117.9438 379.4769)" class="st16" width="2.2" height="133.2"/>
				</g>
				<g>
					
						<rect x="224.9" y="132.7" transform="matrix(7.312870e-02 -0.9973 0.9973 7.312870e-02 38.4447 447.6843)" class="st13" width="70.4" height="141"/>
					<line class="st13" x1="243.5" y1="172.8" x2="238.8" y2="236.8"/>
					
						<rect x="256.1" y="103.1" transform="matrix(7.313140e-02 -0.9973 0.9973 7.313140e-02 69.8747 422.4954)" class="st14" width="12.2" height="141.1"/>
					
						<rect x="258.9" y="106.1" transform="matrix(7.311066e-02 -0.9973 0.9973 7.311066e-02 66.7157 425.0355)" class="st15" width="6.2" height="141.1"/>
					<line class="st13" x1="190.5" y1="192.6" x2="330.5" y2="202.9"/>
					<line class="st13" x1="189.1" y1="212.4" x2="329.1" y2="222.7"/>
				</g>
				<g>
					<g>
						<g>
							
								<rect x="220.7" y="215.9" transform="matrix(7.312616e-02 -0.9973 0.9973 7.312616e-02 -40.5876 455.0418)" class="st11" width="7.6" height="67"/>
							
								<rect x="222.7" y="218" transform="matrix(7.337129e-02 -0.9973 0.9973 7.337129e-02 -42.8861 456.7776)" class="st12" width="3.4" height="67"/>
						</g>
						<g>
							
								<rect x="219.6" y="231.1" transform="matrix(7.312616e-02 -0.9973 0.9973 7.312616e-02 -56.7853 468.0233)" class="st11" width="7.6" height="67"/>
							
								<rect x="221.6" y="233.2" transform="matrix(7.312912e-02 -0.9973 0.9973 7.312912e-02 -59.09 469.8692)" class="st12" width="3.3" height="67"/>
						</g>
						<g>
							
								<rect x="218.5" y="246.3" transform="matrix(7.312876e-02 -0.9973 0.9973 7.312876e-02 -72.9841 481.0041)" class="st11" width="7.6" height="67"/>
							
								<rect x="220.4" y="248.4" transform="matrix(7.300919e-02 -0.9973 0.9973 7.300919e-02 -75.2081 482.8412)" class="st12" width="3.4" height="67"/>
						</g>
						<g>
							
								<rect x="249.4" y="231.7" transform="matrix(7.313318e-02 -0.9973 0.9973 7.313318e-02 -61.8647 528.0727)" class="st11" width="7.6" height="131.2"/>
							
								<rect x="251.3" y="233.8" transform="matrix(7.298349e-02 -0.9973 0.9973 7.298349e-02 -64.0783 529.9213)" class="st12" width="3.4" height="131.2"/>
						</g>
					</g>
					<g>
						<g>
							
								<rect x="265.1" y="249.4" transform="matrix(7.312600e-02 -0.9973 0.9973 7.312600e-02 -3.4974 508.8586)" class="st11" width="13.8" height="13.8"/>
							
								<rect x="286.1" y="251" transform="matrix(7.311742e-02 -0.9973 0.9973 7.311742e-02 14.4063 531.1979)" class="st11" width="13.8" height="13.8"/>
							
								<rect x="307.1" y="252.5" transform="matrix(7.311109e-02 -0.9973 0.9973 7.311109e-02 32.3106 553.5375)" class="st11" width="13.8" height="13.8"/>
						</g>
						<g>
							<g>
								<g>
									
										<rect x="268.5" y="253.1" transform="matrix(7.321009e-02 -0.9973 0.9973 7.321009e-02 -7.4061 511.9509)" class="st12" width="6.4" height="13.8"/>
								</g>
								<g>
									
										<rect x="289.5" y="254.6" transform="matrix(7.321009e-02 -0.9973 0.9973 7.321009e-02 10.4934 534.2877)" class="st12" width="6.4" height="13.8"/>
								</g>
								<g>
									
										<rect x="310.5" y="256.2" transform="matrix(7.321009e-02 -0.9973 0.9973 7.321009e-02 28.3937 556.6254)" class="st12" width="6.4" height="13.8"/>
								</g>
							</g>
						</g>
					</g>
					<g>
						<g>
							
								<rect x="263.4" y="272.6" transform="matrix(7.311710e-02 -0.9973 0.9973 7.311710e-02 -28.149 528.6191)" class="st11" width="13.8" height="13.8"/>
							
								<rect x="284.4" y="274.1" transform="matrix(7.310078e-02 -0.9973 0.9973 7.310078e-02 -10.2426 550.9614)" class="st11" width="13.8" height="13.8"/>
							
								<rect x="305.4" y="275.6" transform="matrix(7.313265e-02 -0.9973 0.9973 7.313265e-02 7.6507 573.2894)" class="st11" width="13.8" height="13.8"/>
						</g>
						<g>
							<g>
								<g>
									
										<rect x="266.7" y="276.1" transform="matrix(7.321601e-02 -0.9973 0.9973 7.321601e-02 -31.9598 531.6233)" class="st12" width="6.6" height="13.8"/>
								</g>
								<g>
									
										<rect x="287.7" y="277.7" transform="matrix(7.312365e-02 -0.9973 0.9973 7.312365e-02 -14.0344 553.989)" class="st12" width="6.6" height="13.8"/>
								</g>
								<g>
									
										<rect x="308.7" y="279.2" transform="matrix(7.313677e-02 -0.9973 0.9973 7.313677e-02 3.8636 576.3226)" class="st12" width="6.6" height="13.8"/>
								</g>
							</g>
						</g>
					</g>
				</g>
			</g>
		</g>
		<g>
			<path class="st16" d="M204.9,128.6l-7.2-0.5l-0.4,4.6l6,0.5c0.6,0,1,0.2,1.2,0.5c0.3,0.3,0.4,0.6,0.3,1c0,0.4-0.2,0.7-0.5,1
				c-0.3,0.2-0.7,0.3-1.3,0.3l-6-0.5l-0.5,6c-0.1,0.8-0.3,1.3-0.6,1.6c-0.4,0.3-0.8,0.5-1.4,0.4c-0.5,0-1-0.3-1.3-0.7
				s-0.4-1-0.4-1.7l1.1-13.9c0-0.5,0.1-0.9,0.3-1.3c0.2-0.3,0.4-0.5,0.8-0.7c0.3-0.1,0.8-0.2,1.3-0.1l8.6,0.7c0.6,0,1,0.2,1.3,0.5
				c0.3,0.3,0.4,0.6,0.3,1c0,0.4-0.2,0.8-0.5,1C205.9,128.5,205.5,128.6,204.9,128.6z"/>
			<path class="st16" d="M219.9,143l-0.7-2.3l-7.3-0.6l-1,2.3c-0.4,0.9-0.7,1.5-1,1.8c-0.3,0.3-0.7,0.4-1.2,0.4
				c-0.5,0-0.9-0.2-1.2-0.6c-0.3-0.4-0.5-0.8-0.4-1.2c0-0.2,0.1-0.5,0.2-0.8c0.1-0.3,0.3-0.6,0.5-1.1l5.5-11.4
				c0.2-0.3,0.3-0.7,0.6-1.2c0.2-0.5,0.4-0.8,0.7-1.1c0.2-0.3,0.5-0.5,0.9-0.7s0.8-0.2,1.3-0.2c0.5,0,0.9,0.2,1.3,0.4
				c0.3,0.2,0.6,0.5,0.8,0.8c0.2,0.3,0.3,0.7,0.5,1c0.1,0.4,0.3,0.8,0.4,1.4l3.8,12c0.3,0.9,0.4,1.6,0.4,2c0,0.4-0.2,0.8-0.6,1.1
				c-0.4,0.3-0.8,0.5-1.3,0.4c-0.3,0-0.5-0.1-0.7-0.2c-0.2-0.1-0.4-0.3-0.5-0.5c-0.1-0.2-0.3-0.5-0.4-0.8S220,143.3,219.9,143z
				 M213,137.4l5.4,0.4l-2.2-7.7L213,137.4z"/>
			<path class="st16" d="M242.1,141c0,0.6-0.2,1.2-0.6,1.8c-0.3,0.6-0.8,1.3-1.5,1.9c-0.7,0.6-1.5,1.1-2.4,1.4
				c-1,0.3-2.1,0.4-3.3,0.4c-1-0.1-1.8-0.2-2.6-0.5s-1.5-0.6-2.1-1c-0.6-0.4-1.2-1-1.6-1.6c-0.4-0.6-0.8-1.3-1.1-2
				c-0.3-0.7-0.5-1.5-0.6-2.3c-0.1-0.8-0.1-1.7-0.1-2.6c0.1-1.5,0.4-2.7,0.9-3.9c0.5-1.1,1.2-2.1,2-2.8s1.8-1.3,2.9-1.7
				c1.1-0.3,2.2-0.5,3.4-0.4c1.5,0.1,2.7,0.5,3.8,1.2s1.9,1.5,2.5,2.4c0.5,0.9,0.8,1.7,0.7,2.5c0,0.4-0.2,0.8-0.5,1.1
				c-0.3,0.3-0.7,0.4-1.1,0.4c-0.5,0-0.8-0.2-1-0.4c-0.2-0.2-0.4-0.6-0.7-1.2c-0.4-0.9-0.9-1.6-1.5-2.1c-0.6-0.5-1.4-0.8-2.3-0.8
				c-1.5-0.1-2.7,0.4-3.7,1.4c-1,1.1-1.5,2.7-1.7,4.8c-0.1,1.4,0,2.6,0.3,3.5c0.3,1,0.8,1.7,1.5,2.2c0.7,0.5,1.5,0.8,2.5,0.9
				c1.1,0.1,2-0.1,2.7-0.6c0.8-0.5,1.4-1.2,1.8-2.2c0.2-0.5,0.4-0.8,0.7-1.1c0.3-0.3,0.6-0.4,1.1-0.4c0.4,0,0.8,0.2,1.1,0.5
				C242,140.2,242.2,140.6,242.1,141z"/>
			<path class="st16" d="M257.9,132.8l-4-0.3l-1,13.1c-0.1,0.8-0.3,1.3-0.6,1.6c-0.4,0.3-0.8,0.5-1.3,0.4c-0.5,0-1-0.3-1.3-0.7
				s-0.4-1-0.4-1.7l1-13.1l-4-0.3c-0.6,0-1.1-0.2-1.4-0.5c-0.3-0.3-0.4-0.7-0.4-1.1c0-0.5,0.2-0.8,0.6-1.1c0.3-0.2,0.8-0.3,1.4-0.3
				l11.6,0.9c0.6,0,1.1,0.2,1.4,0.5c0.3,0.3,0.4,0.7,0.4,1.1c0,0.5-0.2,0.8-0.6,1.1C259,132.8,258.5,132.9,257.9,132.8z"/>
			<path class="st16" d="M261.3,140.7l0.7-8.7c0.1-0.7,0.3-1.3,0.6-1.6s0.8-0.5,1.4-0.5c0.6,0,1,0.3,1.3,0.7c0.3,0.4,0.4,1,0.4,1.7
				l-0.7,8.9c-0.1,1,0,1.9,0.1,2.6c0.2,0.7,0.5,1.3,1.1,1.7s1.3,0.7,2.4,0.7c1.4,0.1,2.5-0.2,3.1-0.9c0.6-0.7,1-1.8,1.2-3.4l0.7-9
				c0.1-0.7,0.3-1.3,0.6-1.6c0.4-0.3,0.8-0.5,1.4-0.4c0.6,0,1,0.3,1.3,0.7c0.3,0.4,0.4,1,0.4,1.7l-0.7,8.7c-0.1,1.4-0.3,2.6-0.7,3.5
				c-0.3,0.9-0.9,1.7-1.7,2.4c-0.7,0.6-1.5,0.9-2.4,1.2c-0.9,0.2-1.9,0.3-3.1,0.2c-1.4-0.1-2.6-0.3-3.6-0.7c-1-0.4-1.8-0.9-2.3-1.6
				c-0.6-0.7-1-1.5-1.2-2.5C261.3,143.3,261.2,142.1,261.3,140.7z"/>
			<path class="st16" d="M285.4,142.3l-1.3-0.1l-0.4,5.8c-0.1,0.8-0.3,1.3-0.6,1.6s-0.8,0.5-1.4,0.4c-0.6,0-1-0.3-1.3-0.7
				c-0.3-0.4-0.4-1-0.4-1.7l1.1-13.9c0.1-0.8,0.3-1.3,0.7-1.7s1-0.5,1.8-0.4l6,0.5c0.8,0.1,1.5,0.2,2.1,0.3c0.6,0.1,1.1,0.3,1.5,0.5
				c0.5,0.3,1,0.7,1.4,1.1c0.4,0.5,0.7,1,0.9,1.6c0.2,0.6,0.2,1.2,0.2,1.9c-0.1,1.3-0.6,2.4-1.4,3.1c-0.8,0.7-2,1.2-3.6,1.4
				c0.6,0.4,1.2,1,1.7,1.7c0.5,0.7,1,1.5,1.4,2.3c0.4,0.8,0.7,1.5,0.9,2.1c0.2,0.6,0.3,1.1,0.3,1.3c0,0.2-0.1,0.5-0.3,0.7
				c-0.2,0.2-0.4,0.4-0.7,0.5s-0.6,0.2-0.9,0.1c-0.4,0-0.7-0.2-1-0.4c-0.3-0.2-0.5-0.5-0.7-0.8c-0.2-0.3-0.4-0.8-0.7-1.4l-1.3-2.6
				c-0.5-0.9-0.9-1.7-1.3-2.2s-0.8-0.9-1.2-1.1C286.6,142.5,286.1,142.4,285.4,142.3z M288.1,134.9l-3.4-0.3l-0.4,5l3.3,0.3
				c0.9,0.1,1.6,0,2.2-0.1c0.6-0.1,1.1-0.3,1.4-0.7c0.3-0.3,0.5-0.8,0.6-1.5c0-0.5-0.1-1-0.3-1.4c-0.2-0.4-0.6-0.7-1-0.9
				C290.2,135.1,289.3,135,288.1,134.9z"/>
			<path class="st16" d="M311.1,136.7l-8.2-0.6l-0.3,4.4l7.6,0.6c0.6,0,1,0.2,1.2,0.5c0.3,0.3,0.4,0.6,0.3,1c0,0.4-0.2,0.7-0.5,1
				c-0.3,0.2-0.7,0.3-1.3,0.3l-7.6-0.6l-0.4,5.1l8.5,0.6c0.6,0,1,0.2,1.3,0.5c0.3,0.3,0.4,0.7,0.4,1.1c0,0.4-0.2,0.8-0.5,1
				c-0.3,0.2-0.8,0.3-1.3,0.3l-9.9-0.8c-0.8-0.1-1.4-0.3-1.7-0.7c-0.3-0.4-0.5-1-0.4-1.8l1-13.6c0-0.5,0.2-0.9,0.3-1.3
				c0.2-0.3,0.4-0.5,0.8-0.7c0.3-0.1,0.8-0.2,1.3-0.1l9.7,0.7c0.6,0,1,0.2,1.3,0.5c0.3,0.3,0.4,0.6,0.3,1c0,0.4-0.2,0.8-0.5,1
				C312.2,136.7,311.7,136.7,311.1,136.7z"/>
			<path class="st16" d="M329,147.9c-0.1,1.1-0.4,2.1-1.1,2.9c-0.6,0.8-1.5,1.4-2.6,1.9s-2.4,0.6-3.9,0.4c-1.8-0.1-3.2-0.6-4.3-1.3
				c-0.8-0.5-1.4-1.2-1.9-2.1c-0.5-0.8-0.6-1.7-0.6-2.4c0-0.4,0.2-0.8,0.5-1.1c0.3-0.3,0.7-0.4,1.2-0.4c0.4,0,0.7,0.2,1,0.4
				c0.2,0.3,0.4,0.6,0.6,1.1c0.2,0.6,0.4,1.1,0.6,1.5c0.2,0.4,0.6,0.8,1.1,1c0.5,0.3,1.1,0.5,1.9,0.5c1.1,0.1,2-0.1,2.7-0.6
				c0.7-0.5,1.1-1.1,1.2-1.8c0-0.6-0.1-1.1-0.4-1.5c-0.3-0.4-0.8-0.7-1.4-1c-0.6-0.2-1.3-0.5-2.3-0.8c-1.3-0.4-2.3-0.8-3.2-1.3
				c-0.8-0.5-1.5-1.1-2-1.8c-0.5-0.7-0.7-1.6-0.6-2.7c0.1-1,0.4-1.9,1-2.6c0.6-0.7,1.4-1.3,2.5-1.6c1.1-0.3,2.3-0.5,3.7-0.3
				c1.1,0.1,2.1,0.3,2.8,0.6s1.4,0.8,1.9,1.3c0.5,0.5,0.9,1,1.1,1.5c0.2,0.5,0.3,1,0.3,1.5c0,0.4-0.2,0.8-0.6,1.1
				c-0.3,0.3-0.7,0.5-1.2,0.4c-0.4,0-0.7-0.2-0.9-0.4c-0.2-0.2-0.4-0.6-0.6-1.1c-0.3-0.7-0.6-1.3-1.1-1.7c-0.4-0.4-1.2-0.7-2.2-0.7
				c-0.9-0.1-1.7,0.1-2.3,0.4c-0.6,0.4-0.9,0.8-1,1.4c0,0.4,0,0.7,0.2,1s0.4,0.5,0.8,0.7c0.3,0.2,0.7,0.4,1,0.5
				c0.3,0.1,0.9,0.3,1.7,0.6c1,0.3,1.9,0.6,2.7,1s1.5,0.8,2,1.2c0.5,0.5,1,1,1.2,1.7C329,146.2,329.1,147,329,147.9z"/>
		</g>
		<g>
			<path class="st16" d="M94,123.2l-7.7,2.3l1.4,4.6l7.1-2.1c0.5-0.2,1-0.1,1.3,0c0.3,0.2,0.6,0.5,0.7,0.9c0.1,0.4,0.1,0.8-0.1,1.2
				c-0.2,0.3-0.5,0.6-1.1,0.8l-7.1,2.1l1.6,5.3l8-2.4c0.5-0.2,1-0.1,1.3,0.1c0.4,0.2,0.6,0.5,0.7,1c0.1,0.4,0.1,0.8-0.1,1.2
				c-0.2,0.4-0.6,0.6-1.1,0.8l-9.3,2.8c-0.7,0.2-1.3,0.2-1.8-0.1c-0.4-0.3-0.8-0.8-1-1.6L82.7,126c-0.2-0.5-0.2-1-0.2-1.4
				c0-0.4,0.2-0.7,0.5-1c0.3-0.2,0.6-0.4,1.1-0.6l9.1-2.7c0.5-0.2,1-0.2,1.3,0c0.3,0.2,0.6,0.5,0.7,0.9c0.1,0.4,0.1,0.8-0.1,1.2
				C94.9,122.8,94.6,123.1,94,123.2z"/>
		</g>
	</g>
	<g>
		<polygon class="st17" points="134.2,325.9 116,320.7 127.4,308.3 		"/>
		<polygon class="st14" points="129.1,324.5 134.2,325.9 132.3,321 		"/>
		
			<rect x="70.4" y="216.8" transform="matrix(0.6781 -0.735 0.735 0.6781 -176.6917 146.3635)" class="st14" width="16.6" height="116.2"/>
		<path class="st18" d="M39.7,231.4c17.2,16,34.1,32.2,51.5,47.9c4.9,4.4,9.5,9.1,14.4,13.6c4.1,3.7,9,7.2,12.1,11.8
			c3.7,5.5-0.2,9.8-4,13.7l2.1,1.9l11.3-12.2l-85.4-78.8L39.7,231.4z"/>
		<path class="st19" d="M38.3,226.1c-3.4-2.8-8.5-2.5-11.5,0.8c-3,3.3-3,8.3,0.1,11.6L38.3,226.1z"/>
		<path class="st20" d="M36.6,228l1.7-1.8c-3.4-2.8-8.5-2.5-11.5,0.8c-0.2,0.2-0.3,0.4-0.5,0.6C29.6,226.6,33.5,226.4,36.6,228z"/>
		
			<rect x="26" y="231.9" transform="matrix(0.6781 -0.735 0.735 0.6781 -160.9197 100.6578)" class="st11" width="16.9" height="4.3"/>
	</g>
</g>
</svg>
