<?xml version="1.0" encoding="utf-8"?>
<!-- Generator: Adobe Illustrator 24.0.0, SVG Export Plug-In . SVG Version: 6.00 Build 0)  -->
<svg version="1.1" id="Layer_1" xmlns="http://www.w3.org/2000/svg" xmlns:xlink="http://www.w3.org/1999/xlink" x="0px" y="0px"
	 viewBox="0 0 138.9 119" style="enable-background:new 0 0 138.9 119;" xml:space="preserve">
<style type="text/css">
	.st0{fill:#F8B127;}
	.st1{fill:#FFFFFF;}
	.st2{fill:#D4961D;}
	.st3{fill:#FFBD49;}
</style>
<g>
	<path class="st0" d="M136.2,67.6c-0.2-4.1-1.7-8-4.2-11.2c-5.6-7.3-6.7-13.1-6.7-13.1c-4.4-11.6-8.3-19.3-11.2-24.1
		c-3-5.1-8.3-8.6-14.2-9.3C88,8.2,50.8,8.2,39,9.8C33,10.5,27.8,14,24.8,19.1C21.9,24,18,31.7,13.6,43.2c0,0-1.1,5.8-6.7,13.1
		c-2.5,3.2-4,7.1-4.2,11.2c-0.4,8.8,2.1,10.8,4.4,30.8c0.2,1.6,1.5,2.8,3.1,2.8h118.5c1.6,0,2.9-1.2,3.1-2.8c0.6-5.6,2.6-17,2.6-17
		C136,75.7,136.4,71.1,136.2,67.6z"/>
	<path class="st1" d="M122.8,42.8c-3.5-8.7-7-16.3-10.6-22.4c-2.7-4.6-7.4-7.8-12.6-8.5c-11.9-1.6-48.6-1.6-60.4,0
		c-5.2,0.7-9.9,3.9-12.6,8.5C23,26.5,19.4,34.3,16,42.8C51.6,45.6,87.3,45.6,122.8,42.8z"/>
	<path class="st1" d="M117.7,52.8c-1.4,0.4-2.6,1-3.7,1.6c-1.9,1.1-3.9,2.1-6,2.9c-3.4,1.3-4,3.2-4,3.2c-0.1,0.1-0.2,0.3-0.3,0.4
		c-2.6,3.9,0.8,9,5.4,8.3c6.7-0.9,12.1-2.9,14.9-4c1.6-0.6,2.8-2,3.2-3.6c0-0.2,0.1-0.3,0.1-0.5C128.5,55.7,123.1,51.2,117.7,52.8z"
		/>
	<path class="st2" d="M124.9,83.7h-7.4c-1.1,0-1.7,1.3-0.9,2.1l7.4,7.4c0.8,0.8,2.1,0.2,2.1-0.9v-7.4
		C126.1,84.3,125.5,83.7,124.9,83.7z"/>
	<path class="st2" d="M131.8,98.4c-0.2,1.6-1.5,2.8-3.1,2.8h-14.2v8.3c0,2.9,2.4,5.3,5.3,5.3h8.9c2.9,0,5.3-2.4,5.3-5.3V83.6
		C133.4,87.1,132.2,94.3,131.8,98.4z"/>
	<path class="st0" d="M138,37c-0.4-1.9-2.2-3.2-4.2-3.2h-3.6c-2.3,0-4.1,1.9-4.1,4.1v2.5h-1.9l1.1,2.6h4.2c2.2,0,4.3-0.5,6.2-1.4
		C137.5,40.9,138.5,38.9,138,37z"/>
	<circle class="st3" cx="120.1" cy="59.5" r="5.2"/>
	<circle class="st0" cx="109.6" cy="63.6" r="3.8"/>
	<polygon class="st0" points="99.7,63.6 93.7,74 45.1,74 39.2,63.6 	"/>
	<path class="st1" d="M35,60.9c-0.1-0.1-0.2-0.3-0.3-0.4c0,0-0.6-1.9-4-3.2c-2.1-0.8-4-1.8-6-2.9c-1.1-0.6-2.3-1.2-3.7-1.6
		c-5.4-1.7-10.8,2.8-9.7,8.3c0,0.2,0.1,0.3,0.1,0.5c0.4,1.7,1.7,3,3.2,3.6c2.8,1.1,8.3,3,14.9,4C34.2,69.9,37.6,64.8,35,60.9z"/>
	<path class="st2" d="M21.4,83.7H14c-0.7,0-1.2,0.6-1.2,1.2v7.4c0,1.1,1.3,1.7,2.1,0.9l7.4-7.4C23.1,85,22.5,83.7,21.4,83.7z"/>
	<path class="st2" d="M118.7,96.6c-7.7-13.3-16.6-12.9-16.6-12.9H36.7c0,0-8.9-0.4-16.6,12.9H6.8L7,98.3c0.2,1.6,1.5,2.8,3.1,2.8
		h118.6c1.6,0,3-1.2,3.1-2.8l0.2-1.7L118.7,96.6L118.7,96.6z"/>
	<path class="st2" d="M10.2,101.2c-1.6,0-2.9-1.2-3.1-2.8c-0.5-4.1-1.6-11.3-2.2-14.8v25.9c0,2.9,2.4,5.3,5.3,5.3h8.9
		c2.9,0,5.3-2.4,5.3-5.3v-8.3L10.2,101.2L10.2,101.2z"/>
	<path class="st0" d="M12.7,40.5v-2.5c0-2.3-1.9-4.1-4.1-4.1H5c-2,0-3.8,1.3-4.2,3.2c-0.4,1.9,0.6,3.9,2.3,4.7
		c2,0.9,4.1,1.4,6.2,1.4h4.2l1.1-2.6L12.7,40.5C12.7,40.4,12.7,40.5,12.7,40.5z"/>
	<circle class="st3" cx="18.8" cy="59.5" r="5.2"/>
	<circle class="st0" cx="29.2" cy="63.6" r="3.8"/>
	<g>
		<path class="st0" d="M97.1,87.3H41.7c-0.9,0-1.6,0.7-1.6,1.6c0,0.9,0.7,1.6,1.6,1.6h55.4c0.9,0,1.6-0.7,1.6-1.6
			C98.7,88,98,87.3,97.1,87.3z"/>
		<path class="st0" d="M97.1,93.6H41.7c-0.9,0-1.6,0.7-1.6,1.6c0,0.9,0.7,1.6,1.6,1.6h55.4c0.9,0,1.6-0.7,1.6-1.6
			C98.7,94.3,98,93.6,97.1,93.6z"/>
	</g>
	<path class="st1" d="M117,29.5V30c0,2.2-1.8,3.9-4,3.8c-2-0.1-3.6-1.9-3.6-4v-7.7c0-1.8-1.5-3.2-3.3-3.2c0,0,0,0-0.1,0c0,0,0,0,0,0
		c-1.8,0-3.3,1.3-3.3,3.2v7c0,2.2-1.9,3.9-4,3.8c-2-0.1-3.6-1.9-3.6-4v-6.1c0-1.8-1.5-3.3-3.4-3.3h-0.3c-1.7,0-3.2,1.4-3.2,3.2v7.9
		c0,2.2-1.8,3.9-4,3.8c-2-0.1-3.5-1.9-3.5-4V19.7c0-1.7-1.5-3.1-3.2-3h-0.3c-1.8,0-3.2,1.4-3.2,3.2v10.8c0,2.1-1.7,3.8-3.8,3.8
		c-2,0-3.7-1.6-3.8-3.7v-9.1c0-2.1-1.6-3.9-3.6-4c-2.2-0.1-4,1.6-4,3.8l0,8.4c0,2.2-1.8,3.9-4,3.8c-2-0.1-3.5-1.9-3.6-3.9V20
		c0-2-1.5-3.9-3.6-4c-2.2-0.1-4,1.6-4,3.8v10.3c-0.1,2.1-1.8,3.8-4,3.7c-2-0.1-3.5-1.9-3.5-4v-7.7c0-1.8-1.6-3.2-3.4-3.2
		c0,0,0,0,0,0c0,0,0,0,0,0c-1.9,0-3.4,1.3-3.4,3.2v7c0,2.2-1.8,3.9-4,3.8c-1.9-0.1-3.3-1.6-3.5-3.5c-2,4.1-4,8.6-5.9,13.4
		c35.5,2.8,71.2,2.8,106.8,0C120.9,38,118.9,33.6,117,29.5z"/>
</g>
</svg>
