<svg xmlns="http://www.w3.org/2000/svg" width="164.826" height="163.245" viewBox="0 0 164.826 163.245">
  <g id="helmet" transform="translate(-25.432 -27.643)">
    <path id="Tracé_52" data-name="Tracé 52" d="M241.1,74.442a8.157,8.157,0,0,0,8.4-8.153V35.8a8.157,8.157,0,1,0-16.313,0V66.289a8.117,8.117,0,0,0,7.918,8.153Z" transform="translate(-133.492)" fill="#f8b127"/>
    <path id="Tracé_53" data-name="Tracé 53" d="M192,94.038a70,70,0,0,0-17.268-24.3V81.928a11.731,11.731,0,0,1-11.72,11.731c-.118,0-.236,0-.354-.005a11.674,11.674,0,0,1-11.388-11.726V61.5a11.656,11.656,0,0,1,1.358-5.469,72.519,72.519,0,0,0-14.776-4.045V81.929a11.731,11.731,0,0,1-11.72,11.731c-.118,0-.236,0-.354-.005a11.675,11.675,0,0,1-11.387-11.726V51.992A72.5,72.5,0,0,0,99.62,56.048a11.652,11.652,0,0,1,1.348,5.45V81.928A11.731,11.731,0,0,1,89.248,93.66c-.118,0-.236,0-.355-.005A11.675,11.675,0,0,1,77.506,81.929V69.792A70.152,70.152,0,0,0,60.263,94.083a84.891,84.891,0,0,0-6.394,30.612h144.5A84.727,84.727,0,0,0,192,94.038Z" transform="translate(-18.273 -15.641)" fill="#f8b127"/>
    <path id="Tracé_54" data-name="Tracé 54" d="M137.917,92.521a8.157,8.157,0,0,0,8.4-8.153V63.936a8.157,8.157,0,1,0-16.314,0V84.367a8.117,8.117,0,0,0,7.918,8.155Z" transform="translate(-67.191 -18.079)" fill="#f8b127"/>
    <path id="Tracé_55" data-name="Tracé 55" d="M182.316,265.408H33.374a7.942,7.942,0,1,0,0,15.884H182.316a7.942,7.942,0,1,0,0-15.884Z" transform="translate(0 -152.78)" fill="#f8b127"/>
    <path id="Tracé_56" data-name="Tracé 56" d="M344.277,92.521a8.157,8.157,0,0,0,8.4-8.153V63.936a8.157,8.157,0,1,0-16.314,0V84.367A8.118,8.118,0,0,0,344.277,92.521Z" transform="translate(-199.791 -18.079)" fill="#f8b127"/>
    <path id="Tracé_57" data-name="Tracé 57" d="M56,390.643h6.434v22.876H56Z" transform="translate(-19.642 -233.252)" fill="#f8b127"/>
    <path id="Tracé_58" data-name="Tracé 58" d="M199.8,356.928H91.089A7.1,7.1,0,0,0,84,364.017v31.37a7.1,7.1,0,0,0,7.089,7.089h39.788l2.435-5.265a13.109,13.109,0,0,1,23.67-.268l2.712,5.533h39.881a7.108,7.108,0,0,0,7.089-7.038l.228-31.369a7.089,7.089,0,0,0-7.089-7.141ZM94.276,366.2h-2.52a1.787,1.787,0,1,1,0-3.574h2.52a1.787,1.787,0,1,1,0,3.574Zm33.129,0H100.573a1.787,1.787,0,1,1,0-3.574h26.832a1.787,1.787,0,1,1,0,3.574Z" transform="translate(-37.634 -211.587)" fill="#f8b127"/>
    <path id="Tracé_59" data-name="Tracé 59" d="M437.253,413.519h6.7V390.643H437.42Z" transform="translate(-264.622 -233.252)" fill="#f8b127"/>
  </g>
</svg>
