<?xml version="1.0" encoding="utf-8"?>
<!-- Generator: Adobe Illustrator 24.0.0, SVG Export Plug-In . SVG Version: 6.00 Build 0)  -->
<svg version="1.1" id="Layer_1" xmlns="http://www.w3.org/2000/svg" xmlns:xlink="http://www.w3.org/1999/xlink" x="0px" y="0px"
	 viewBox="0 0 138.9 119" style="enable-background:new 0 0 138.9 119;" xml:space="preserve">
<style type="text/css">
	.st0{fill:#F8B127;}
</style>
<g>
	<g>
		<path class="st0" d="M130.8,41.8c-0.6,0-1.2,0.1-1.8,0.3l-6.5,1.8l-6.8-16.6c-2-5-8.1-9-13.5-9h-4.5V4.4c0-2.4-2-4.4-4.4-4.4H46.7
			c-2.4,0-4.4,2-4.4,4.4v13.8h-4.6c-5.4,0-11.4,4.1-13.5,9l-6.8,16.6l-6.4-1.8c-0.6-0.2-1.2-0.3-1.8-0.3c-3.3,0-5.7,2.5-5.7,6v3.5
			c0,4,3.3,7.3,7.3,7.3h0.5l-1,2.4c-1.9,4.6-3.4,12.5-3.4,17.5v33.2c0,4,3.3,7.3,7.3,7.3h8.8c4,0,7.3-3.3,7.3-7.3v-8.2h79.3v8.2
			c0,4,3.3,7.3,7.3,7.3h8.8c4,0,7.3-3.3,7.3-7.3V78.5c0-5-1.5-12.8-3.4-17.5l-1-2.4h0.6c4,0,7.3-3.3,7.3-7.3v-3.5
			C136.4,44.3,134.1,41.8,130.8,41.8z M87.6,5.9c0-0.1,0.1-0.2,0.2-0.2h3.4c0.1,0,0.2,0.1,0.2,0.2V18c0,0.1,0,0.1-0.1,0.1h-3.6
			c0,0-0.1-0.1-0.1-0.1V5.9z M63.3,5.7h4.1c0.1,0,0.2,0.1,0.2,0.2L72.5,18l4.4-5.5c0.1-0.1,0.1-0.2,0-0.3l-4.2-6.4
			c-0.1-0.1,0-0.1,0.1-0.1h3.8c0.1,0,0.2,0.1,0.3,0.1l2.2,3.6c0.1,0.1,0.1,0.1,0.2,0l2.2-3.6c0.1-0.1,0.2-0.1,0.3-0.1h3.8
			c0.1,0,0.1,0.1,0.1,0.1l-4.3,6.4c-0.1,0.1,0,0.2,0,0.3l4.5,5.6c0,0,0,0.1,0,0.1h-4c-0.1,0-0.1-0.1-0.1-0.1l-2.5-4
			c-0.1-0.1-0.1-0.1-0.2,0l-2.5,4c0,0-0.1,0.1-0.1,0.1h-7.5c-0.1,0-0.1-0.1-0.1-0.1l-0.8-2.5c0-0.1-0.1-0.2-0.2-0.2H63
			c-0.1,0-0.2,0.1-0.2,0.2l-0.9,2.5c0,0.1-0.1,0.1-0.1,0.1h-3.6c0,0,0-0.1,0-0.1l4.9-12.2C63.1,5.8,63.2,5.7,63.3,5.7z M51.4,18V8.4
			c0-0.1-0.1-0.2-0.2-0.2h-4.1C47.1,8.2,47,8.1,47,8V5.9c0-0.1,0.1-0.2,0.2-0.2h12.3c0.1,0,0.2,0.1,0.2,0.2V8c0,0.1-0.1,0.2-0.2,0.2
			h-4.1c-0.1,0-0.2,0.1-0.2,0.2V18c0,0.1,0,0.1-0.1,0.1h-3.6C51.4,18.2,51.4,18.1,51.4,18z M22.5,54.6l10.4-25.3
			c1.2-3,4.9-5.4,8.1-5.4h57.9c3.2,0,6.9,2.4,8.1,5.4l10.4,25.3c1.2,3-0.4,5.4-3.6,5.4H26.1C22.9,60,21.3,57.6,22.5,54.6z
			 M45.9,87.1c0,1.6-1.3,2.9-2.9,2.9H23.2c-1.6,0-2.9-1.3-2.9-2.9v-9.4c0-1.6,1.3-2.9,2.9-2.9H43c1.6,0,2.9,1.3,2.9,2.9L45.9,87.1
			L45.9,87.1z M119.3,87.1c0,1.6-1.3,2.9-2.9,2.9H96.6c-1.6,0-2.9-1.3-2.9-2.9v-9.4c0-1.6,1.3-2.9,2.9-2.9h19.8
			c1.6,0,2.9,1.3,2.9,2.9V87.1z"/>
		<path class="st0" d="M66.8,12.8c0.1,0,0.1-0.1,0.1-0.2l-1.5-3.4c0-0.1-0.1-0.1-0.1,0l-1.5,3.4c0,0.1,0,0.2,0.1,0.2
			C63.9,12.8,66.8,12.8,66.8,12.8z"/>
	</g>
</g>
</svg>
