<svg xmlns="http://www.w3.org/2000/svg" width="184.697" height="137.146" viewBox="0 0 184.697 137.146">
  <g id="Groupe_10" data-name="Groupe 10" transform="translate(-240.957 768.442)">
    <g id="plane" transform="translate(247.539 -768.442) rotate(3)">
      <g id="Groupe_7" data-name="Groupe 7" transform="translate(0 0)">
        <g id="Groupe_6" data-name="Groupe 6" transform="translate(0 0)">
          <path id="Tracé_32" data-name="Tracé 32" d="M124.962,3.553a12.6,12.6,0,0,0-17.721.178L80.9,30.581,16.61,9.772l-13.5,13.2L56.7,55.242,29.586,82.876,12.2,80.084,0,92.014l25.563,8.757,8.954,25,12.2-11.93L43.86,96.837,72.114,70.318l32.994,52.41,13.5-13.2L97.329,46.651,124.78,20.886A11.947,11.947,0,0,0,124.962,3.553Z" fill="#f8b127"/>
        </g>
      </g>
    </g>
    <g id="travel" transform="translate(329.26 -719.262)">
      <g id="Groupe_9" data-name="Groupe 9" transform="translate(0 0)">
        <path id="Tracé_33" data-name="Tracé 33" d="M175.87,62.439h8.321V72.718H175.87Z" transform="translate(-153.315 -51.657)" fill="#f8b127"/>
        <path id="Tracé_34" data-name="Tracé 34" d="M300.748,62.439h8.321V72.718h-8.321Z" transform="translate(-235.23 -51.657)" fill="#f8b127"/>
        <path id="Tracé_35" data-name="Tracé 35" d="M175.87,2.447V14.684h13.223V9.532c0-.669.862-1.211,1.925-1.211h29.6c1.063,0,1.925.542,1.925,1.211v5.152h13.223V2.447C235.763,1.1,234.022,0,231.874,0H179.759c-2.148,0-3.889,1.1-3.889,2.447Z" transform="translate(-157.654 0)" fill="#f8b127"/>
        <path id="Tracé_36" data-name="Tracé 36" d="M199.818,179.407H117.194c-3.8,0-6.885-1.874-6.885-4.186V110.332c0-2.312,3.083-4.186,6.885-4.186h82.624c3.8,0,6.885,1.874,6.885,4.186V175.22C206.7,177.533,203.621,179.407,199.818,179.407Z" transform="translate(-110.309 -91.44)" fill="#f8b127"/>
        <path id="Tracé_37" data-name="Tracé 37" d="M365.756,106.146h-4.65c2.7,0,4.895,1.874,4.895,4.186V175.22c0,2.312-2.191,4.186-4.895,4.186h4.65c2.7,0,4.895-1.874,4.895-4.186V110.332c0-2.312-2.191-4.186-4.895-4.186Z" transform="translate(-274.256 -91.44)" fill="#f8b127"/>
        <path id="Tracé_40" data-name="Tracé 40" d="M309.622,305.724l-1.817,1.817,1.817,1.817v12.378a2.447,2.447,0,0,1-2.447,2.447h-5.383a2.446,2.446,0,0,0,2.447-2.447V302.157a2.446,2.446,0,0,0-2.447-2.447h5.383a2.447,2.447,0,0,1,2.447,2.447Z" transform="translate(-236.083 -250.194)" fill="#f8b127"/>
        <path id="Tracé_43" data-name="Tracé 43" d="M233.735,194.108H220.96a2.423,2.423,0,0,1-2.423-2.423V188.7a2.423,2.423,0,0,1,2.423-2.423h12.776a2.423,2.423,0,0,1,2.423,2.423v2.986A2.423,2.423,0,0,1,233.735,194.108Z" transform="translate(-179.15 -153.858)" fill="#f8b127"/>
      </g>
    </g>
  </g>
</svg>
